<?xml version="1.0" encoding="utf-8"?>
<!-- Generator: Adobe Illustrator 26.5.0, SVG Export Plug-In . SVG Version: 6.00 Build 0)  -->
<svg version="1.1" id="Capa_1" xmlns="http://www.w3.org/2000/svg" xmlns:xlink="http://www.w3.org/1999/xlink" x="0px" y="0px"
	 viewBox="0 0 396.8 112.2" style="enable-background:new 0 0 396.8 112.2;" xml:space="preserve">
<style type="text/css">
	.st0{fill:#E5E5E6;}
	.st1{fill:#0F496E;}
	.st2{fill:#F29301;}
</style>
<g id="a">
</g>
<g>
	<circle class="st0" cx="54" cy="54" r="54"/>
	<path class="st1" d="M50.2,108c0.3-0.1,4.9-0.6,7.8-1.7s6.8-2.3,8.8-4.8c1.1-1.4,1.7-2.9,1.6-4.7c0-1.1-0.6-1.4-1.3-1
		c-1.3,0.7-8.4,3-16.5,1.9c-3.4-0.5-6.8-1.3-10.1-2.4c-2.9-0.9-5.6-2.2-8.3-3.5c-2.2-1.1-4.3-2.5-6.2-4.1c-2.5-2-4.9-4.1-7.1-6.4
		c-2.4-2.6-4.7-5.3-6.4-8.3c-5.5-9.7-5.4-12.9-6.2-15.7C6,56.4,5.2,52.3,7,43.3c0.9-4.5,2.4-9,4.6-13.1c1.4-2.7,3.6-9.1,13-17.7
		c3.2-3,6.7-5.8,10.6-7.8c2.9-1.5,6-2.8,9.3-3.7c2.9-0.9,5.8-1.2,8.9-0.8c-2.7,0.3-5.2,1.1-7.5,2.5c-6,3.4-6.4,7.4-6.3,9
		c0.1,0.5,0.2,0.8,0.8,0.6c2.2-0.6,4.3-1.3,6.5-1.7c1.9-0.3,11.7-0.7,19.9,1.5c4.3,1.1,8.1,3.3,11.9,5.6c4.5,2.7,8.3,6,11.7,9.9
		c2.6,2.9,4.8,6.1,6.6,9.5c1.6,2.9,2.7,5.8,3.7,8.9c1.2,3.5,2,7.1,1.6,10.9c-0.3,3.6-0.8,7.2-1.9,10.6c-0.9,2.9-4.6,15.3-15.7,27.2
		c-2.6,2.5-5.6,4.7-8.6,6.7c-3.2,2.1-9.6,5.3-13.5,6.1C59.4,108,53.6,108.6,50.2,108L50.2,108z M36.8,54c-0.3,9.3,8,17.5,17.5,17.3
		c9.4-0.2,17.8-7.5,17.1-18.4c-0.6-9.5-7.2-15.9-17.5-16.1C44.6,36.6,36.6,44,36.8,54z M17.8,60.6c-0.1,0.7,0,1.5,0.2,2.3
		c0.6,2.9,2,5.4,3.1,8c1.5,3.5,4,6.5,6.5,9.2c2.7,2.9,6,5.3,9.6,7.2c4.1,2.1,8.6,3.3,13.1,4c5.1,0.8,10.2,0.1,15.1-1.5
		c2.7-0.8,5.2-1.9,7.7-3.3c2-1.2,4-2.6,5.7-4.1c3.6-3.1,6.7-6.7,8.8-11.1c1.1-2.2,2-4.4,2.8-6.7c1-2.9,1.3-5.9,0.4-8.9
		c-0.8-2.7-2.3-4.9-4.6-6.6c-0.3-0.2-0.5-0.4-0.9-0.3c-0.5,0.2-0.4,0.7-0.4,1c0,1.1,0,2.3,0,3.4C85,57,84.2,60.6,82.8,64
		c-1.1,2.7-2.4,5.3-4.1,7.8c-2.1,2.9-4.4,5.6-7.2,7.8c-2,1.7-6.7,4.8-12.7,6.8c-3.1,1-7.8,0.7-13.3-0.3s-10.8-4.3-13.2-6.1
		c-3.3-2.5-6.4-5.2-8.9-8.6C21.1,67.9,19.3,64.3,17.8,60.6L17.8,60.6z M90.7,47.2c0.1-2.4-0.5-4.1-1.2-5.9c-0.8-2.2-1.9-4.3-3.1-6.4
		c-1.2-2.1-2.7-3.9-4.2-5.8c-2.4-3-5.3-5.4-8.5-7.2c-3.4-2-10.2-5.6-19.1-5.6c-6.8,0-11.6,1.4-13.2,2.2c-4,1.8-7.9,3.7-11.2,6.6
		c-2,1.7-3.8,3.5-5.4,5.5c-1.5,2-3,4-4.1,6.3c-0.9,2-2,3.8-2.5,5.9c-0.6,2.7-1.3,5.5-0.6,8.4c0.7,3,2.2,5.3,4.6,7.1
		c0.4,0.3,0.9,0.7,1.4,0.5c0.3-0.2,0.1-0.7,0.1-1.2c-0.1-3,0-6.1,0.7-9c0.4-1.7,0.8-3.3,1.4-4.9c1.3-3,2.8-5.9,4.7-8.6
		c2-2.8,4.3-5.2,7-7.2c2.2-1.6,4.6-3.2,7.3-4.3c3.2-1.3,6.4-2.3,9.8-2.4c4.2-0.1,8.4,0.4,12.4,1.9c2.7,1,5.3,2.3,7.8,3.8
		c2.7,1.7,5.2,3.7,7.4,6.1C86,37,88.8,41.6,90.7,47.2L90.7,47.2z"/>
	<path class="st2" d="M36.8,54C36.6,44,44.6,36.6,53.9,36.8c10.2,0.2,16.8,6.6,17.4,16.1c0.7,10.9-7.7,18.2-17.1,18.4
		C44.8,71.5,36.5,63.4,36.8,54z"/>
	<g>
		<path class="st2" d="M140.6,54.9h13.3c0,0.3,0,0.7,0.1,1.1c0,0.4,0,1,0,1.8c0,7.1-1.6,12.3-4.6,15.7c-3.1,3.4-7.8,5.1-14.2,5.1
			c-3.8,0-7-0.6-9.7-1.9c-2.7-1.2-4.8-3.2-6.5-5.7c-1.2-1.8-2-4.3-2.5-7.5c-0.5-3.2-0.8-8.3-0.8-15.3s0.2-12.1,0.8-15.3
			s1.3-5.7,2.5-7.5c1.6-2.5,3.8-4.4,6.4-5.7s5.8-1.9,9.5-1.9c6.3,0,11.1,1.8,14.3,5.3s4.8,8.8,4.8,15.8v0.6l-13.2,0
			c-0.1-3.9-0.5-6.7-1.4-8.3s-2.3-2.4-4.3-2.4c-2.2,0-3.7,1-4.5,2.9c-0.8,1.9-1.2,7.1-1.2,15.4v1.1c0,9,0.4,14.4,1.2,16.5
			c0.8,2,2.3,3,4.5,3c2,0,3.4-0.7,4.3-2.2c0.8-1.5,1.2-4.2,1.2-8.2L140.6,54.9L140.6,54.9z"/>
		<path class="st2" d="M157.1,77.3l12.6-57.9h16.1l12.5,57.9h-13.5l-1.7-11.1h-10.6l-1.7,11.1L157.1,77.3L157.1,77.3z M173.8,55.7
			h7.8l-3.9-25.3L173.8,55.7L173.8,55.7z"/>
		<path class="st2" d="M203.9,96V19.4h13.3c4.9,0,8.5,0.2,10.9,0.6c2.3,0.4,4.3,1.1,5.9,2.1c2.1,1.3,3.8,3.2,4.9,5.8
			c1.1,2.6,1.7,5.6,1.7,9.2c0,5.9-1.6,10.3-4.6,13.4c-3.1,3-7.6,4.6-13.6,4.6h-4.8v24.8L203.9,96L203.9,96z M217.5,44.3
			c0.2,0,0.4,0,0.7,0.1s0.6,0,1.1,0c2.7,0,4.7-0.6,5.9-1.9c1.2-1.3,1.8-3.3,1.8-6.1c0-2.3-0.6-4-1.9-5c-1.3-1-3.4-1.5-6.4-1.5h-1.2
			L217.5,44.3L217.5,44.3z"/>
		<path class="st2" d="M244.4,77.3V19.4h31.5v11.2h-18v10.6h16.7v11.6h-16.7v12.6h18v11.8C275.9,77.3,244.4,77.3,244.4,77.3z"/>
		<path class="st2" d="M283.6,57.6H296v1.7c0,3.2,0.4,5.4,1.1,6.7s2,2,3.8,2c1.4,0,2.6-0.5,3.4-1.5c0.8-1,1.2-2.3,1.2-4
			c0-2.8-2-5.5-6.1-8.1c-0.6-0.5-1.1-0.8-1.5-1l-0.6-0.4c-5.4-3.7-8.8-6.4-10.1-8.3c-1-1.4-1.7-3-2.2-4.7c-0.5-1.8-0.8-3.7-0.8-5.8
			c0-5.1,1.5-9,4.4-11.9s7-4.3,12.1-4.3c5.6,0,9.9,1.4,12.8,4.2s4.4,6.9,4.4,12.3c0,0.2,0,0.5,0,0.9c0,0.4,0,0.7,0,0.9h-12.1v-0.7
			c0-2.5-0.4-4.5-1.2-5.8c-0.8-1.3-1.9-2-3.4-2c-1.3,0-2.3,0.5-3.1,1.4s-1.2,2.1-1.2,3.6c0,2.5,2.2,5.1,6.6,7.8
			c0.8,0.5,1.4,0.9,1.8,1.2c0.4,0.2,0.8,0.5,1.5,0.9c4.7,3,7.8,5.5,9.1,7.6c0.8,1.3,1.5,2.8,1.9,4.5s0.7,3.5,0.7,5.5
			c0,5.8-1.5,10.2-4.5,13.4c-3,3.1-7.3,4.7-12.9,4.7c-5.9,0-10.3-1.5-13.2-4.5c-3-3-4.4-7.4-4.4-13.4c0-0.4,0-0.8,0-1.2
			C283.5,59.2,283.5,58.5,283.6,57.6L283.6,57.6z"/>
		<path class="st2" d="M324.4,77.3V19.4h13.3c4.9,0,8.5,0.2,10.9,0.6c2.3,0.4,4.3,1.1,5.9,2.1c2.1,1.3,3.8,3.2,4.9,5.8
			c1.1,2.6,1.7,5.6,1.7,9.2c0,5.9-1.5,10.3-4.6,13.4c-3.1,3-7.6,4.6-13.6,4.6H338v22.2H324.4L324.4,77.3z M338,44.3
			c0.2,0,0.4,0,0.7,0.1s0.6,0,1.1,0c2.7,0,4.7-0.6,5.9-1.9c1.2-1.3,1.8-3.3,1.8-6.1c0-2.3-0.6-4-1.9-5c-1.3-1-3.4-1.5-6.4-1.5H338
			L338,44.3L338,44.3z"/>
		<path class="st2" d="M365.3,77.3V19.4h31.5v11.2h-18v10.6h16.7v11.6h-16.7v12.6h18v11.8C396.8,77.3,365.3,77.3,365.3,77.3z"/>
	</g>
	<g>
		<path class="st1" d="M129.6,105.8h1.9c0,0,0,0.1,0,0.2s0,0.2,0,0.2c0,1.2-0.3,2.1-0.8,2.7c-0.5,0.6-1.3,0.9-2.4,0.9
			c-0.5,0-0.9-0.1-1.3-0.2s-0.7-0.3-0.9-0.6c-0.3-0.4-0.6-0.9-0.8-1.5s-0.2-1.8-0.2-3.3c0-1.1,0-1.9,0.1-2.6s0.2-1.1,0.4-1.4
			c0.3-0.5,0.6-0.8,1.1-1.1c0.4-0.2,0.9-0.3,1.6-0.3c1.1,0,1.8,0.3,2.3,0.8c0.5,0.6,0.7,1.4,0.7,2.7h-1.9V102c0-0.6-0.1-1-0.3-1.3
			c-0.2-0.3-0.5-0.4-0.8-0.4c-0.5,0-0.8,0.2-1,0.6s-0.3,1.5-0.3,3.2c0,1.9,0.1,3.1,0.2,3.5c0.2,0.4,0.5,0.6,0.9,0.6
			c0.4,0,0.7-0.2,0.9-0.5c0.2-0.3,0.3-0.9,0.3-1.8L129.6,105.8L129.6,105.8z"/>
		<path class="st1" d="M137.3,109.6c0-0.1-0.1-0.2-0.1-0.3c0-0.1-0.1-0.3-0.1-0.5c-0.2,0.3-0.4,0.6-0.7,0.7
			c-0.3,0.2-0.7,0.2-1.1,0.2c-0.6,0-1.1-0.2-1.4-0.6c-0.3-0.4-0.5-1-0.5-1.7c0-0.7,0.1-1.2,0.4-1.6c0.3-0.4,0.9-0.8,1.8-1.2
			c0.1,0,0.2-0.1,0.4-0.2c0.7-0.3,1.1-0.7,1.1-1.1c0-0.2-0.1-0.4-0.2-0.6c-0.1-0.1-0.3-0.2-0.6-0.2c-0.3,0-0.6,0.1-0.7,0.3
			c-0.2,0.2-0.2,0.5-0.2,0.8v0.2h-1.8c0-0.9,0.2-1.5,0.6-1.9c0.4-0.4,1.1-0.6,2.1-0.6s1.6,0.2,2,0.6c0.4,0.4,0.6,1,0.6,1.9v4.5
			c0,0.2,0,0.4,0.1,0.6s0.1,0.4,0.2,0.5C139.1,109.5,137.3,109.5,137.3,109.6z M135.2,100.8l1.2-1.9h1.8l-2.1,1.9H135.2z
			 M137.1,105.4c-0.7,0.3-1.1,0.7-1.4,0.9s-0.4,0.6-0.4,1c0,0.3,0.1,0.6,0.2,0.8c0.1,0.2,0.3,0.2,0.6,0.2c0.3,0,0.6-0.1,0.7-0.4
			s0.2-0.7,0.2-1.2L137.1,105.4L137.1,105.4z"/>
		<path class="st1" d="M140.9,109.6v-7.9h1.7v0.9c0.2-0.4,0.5-0.7,0.7-0.9c0.3-0.2,0.7-0.2,1.2-0.2c0.4,0,0.7,0.1,1,0.3
			c0.3,0.2,0.5,0.4,0.6,0.7c0.2-0.3,0.5-0.6,0.8-0.8c0.3-0.2,0.6-0.2,1-0.2c0.6,0,1.1,0.2,1.4,0.5c0.3,0.3,0.5,0.8,0.5,1.5v6.1h-1.8
			v-5.1c0-0.6-0.1-1-0.2-1.2s-0.4-0.3-0.7-0.3c-0.3,0-0.5,0.1-0.7,0.3c-0.1,0.2-0.2,0.6-0.2,1.1v5.1h-1.8v-5.1
			c0-0.5-0.1-0.9-0.2-1.1c-0.1-0.2-0.3-0.3-0.6-0.3c-0.3,0-0.6,0.1-0.7,0.3c-0.1,0.2-0.2,0.6-0.2,1.1v5.2H140.9z"/>
		<path class="st1" d="M155.7,109.6c0-0.1-0.1-0.2-0.1-0.3c0-0.1-0.1-0.3-0.1-0.5c-0.2,0.3-0.4,0.6-0.7,0.7
			c-0.3,0.2-0.7,0.2-1.1,0.2c-0.6,0-1.1-0.2-1.4-0.6c-0.3-0.4-0.5-1-0.5-1.7c0-0.7,0.1-1.2,0.4-1.6c0.3-0.4,0.9-0.8,1.8-1.2
			c0.1,0,0.2-0.1,0.4-0.2c0.7-0.3,1.1-0.7,1.1-1.1c0-0.2-0.1-0.4-0.2-0.6c-0.1-0.1-0.3-0.2-0.6-0.2c-0.3,0-0.6,0.1-0.7,0.3
			c-0.2,0.2-0.2,0.5-0.2,0.8v0.2h-1.8c0-0.9,0.2-1.5,0.6-1.9c0.4-0.4,1.1-0.6,2.1-0.6s1.6,0.2,2,0.6c0.4,0.4,0.6,1,0.6,1.9v4.5
			c0,0.2,0,0.4,0.1,0.6s0.1,0.4,0.2,0.5C157.5,109.5,155.7,109.5,155.7,109.6z M155.5,105.4c-0.7,0.3-1.1,0.7-1.4,0.9
			s-0.4,0.6-0.4,1c0,0.3,0.1,0.6,0.2,0.8c0.1,0.2,0.3,0.2,0.6,0.2c0.3,0,0.6-0.1,0.7-0.4s0.2-0.7,0.2-1.2L155.5,105.4L155.5,105.4z"
			/>
		<path class="st1" d="M159.4,109.6v-7.9h1.8v1.3c0.2-0.5,0.5-0.9,0.8-1.1c0.3-0.2,0.6-0.3,1-0.3v2.2c-0.1,0-0.1,0-0.2,0
			c-0.1,0-0.1,0-0.2,0c-0.4,0-0.7,0.1-0.9,0.3c-0.2,0.2-0.3,0.5-0.3,0.9v4.6H159.4L159.4,109.6z"/>
		<path class="st1" d="M168.4,109.6c0-0.1-0.1-0.2-0.1-0.3c0-0.1-0.1-0.3-0.1-0.5c-0.2,0.3-0.4,0.6-0.7,0.7
			c-0.3,0.2-0.7,0.2-1.1,0.2c-0.6,0-1.1-0.2-1.4-0.6c-0.3-0.4-0.5-1-0.5-1.7c0-0.7,0.1-1.2,0.4-1.6c0.3-0.4,0.9-0.8,1.8-1.2
			c0.1,0,0.2-0.1,0.4-0.2c0.7-0.3,1.1-0.7,1.1-1.1c0-0.2-0.1-0.4-0.2-0.6c-0.1-0.1-0.3-0.2-0.6-0.2c-0.3,0-0.6,0.1-0.7,0.3
			c-0.2,0.2-0.2,0.5-0.2,0.8v0.2h-1.8c0-0.9,0.2-1.5,0.6-1.9c0.4-0.4,1.1-0.6,2.1-0.6s1.6,0.2,2,0.6c0.4,0.4,0.6,1,0.6,1.9v4.5
			c0,0.2,0,0.4,0.1,0.6s0.1,0.4,0.2,0.5C170.1,109.5,168.4,109.5,168.4,109.6z M168.1,105.4c-0.7,0.3-1.1,0.7-1.4,0.9
			s-0.4,0.6-0.4,1c0,0.3,0.1,0.6,0.2,0.8c0.1,0.2,0.3,0.2,0.6,0.2c0.3,0,0.6-0.1,0.7-0.4s0.2-0.7,0.2-1.2L168.1,105.4L168.1,105.4z"
			/>
		<path class="st1" d="M176.1,109.6V99h3.4c1,0,1.8,0.2,2.2,0.7c0.5,0.5,0.7,1.2,0.7,2.3s-0.2,1.8-0.7,2.3c-0.5,0.5-1.2,0.8-2.2,0.8
			h-1.4v4.5L176.1,109.6L176.1,109.6z M178,103.6h0.8c0.6,0,1-0.1,1.3-0.4c0.2-0.2,0.4-0.7,0.4-1.2s-0.1-1-0.3-1.2
			c-0.2-0.2-0.7-0.3-1.3-0.3H178L178,103.6L178,103.6z"/>
		<path class="st1" d="M187.6,109.6c0-0.1-0.1-0.2-0.1-0.3c0-0.1-0.1-0.3-0.1-0.5c-0.2,0.3-0.4,0.6-0.7,0.7
			c-0.3,0.2-0.7,0.2-1.1,0.2c-0.6,0-1.1-0.2-1.4-0.6c-0.3-0.4-0.5-1-0.5-1.7c0-0.7,0.1-1.2,0.4-1.6c0.3-0.4,0.9-0.8,1.8-1.2
			c0.1,0,0.2-0.1,0.4-0.2c0.7-0.3,1.1-0.7,1.1-1.1c0-0.2-0.1-0.4-0.2-0.6c-0.1-0.1-0.3-0.2-0.6-0.2c-0.3,0-0.6,0.1-0.7,0.3
			c-0.2,0.2-0.2,0.5-0.2,0.8v0.2h-1.8c0-0.9,0.2-1.5,0.6-1.9c0.4-0.4,1.1-0.6,2.1-0.6s1.6,0.2,2,0.6c0.4,0.4,0.6,1,0.6,1.9v4.5
			c0,0.2,0,0.4,0.1,0.6s0.1,0.4,0.2,0.5C189.4,109.5,187.6,109.5,187.6,109.6z M187.3,105.4c-0.7,0.3-1.1,0.7-1.4,0.9
			s-0.4,0.6-0.4,1c0,0.3,0.1,0.6,0.2,0.8c0.1,0.2,0.3,0.2,0.6,0.2c0.3,0,0.6-0.1,0.7-0.4s0.2-0.7,0.2-1.2L187.3,105.4L187.3,105.4z"
			/>
		<path class="st1" d="M193.1,106.6v0.5c0,0.4,0,0.7,0.1,0.8s0.2,0.2,0.4,0.2c0.1,0,0.1,0,0.1,0s0.1,0,0.1,0v1.4
			c-0.3,0-0.5,0.1-0.6,0.1c-0.1,0-0.3,0-0.4,0c-0.6,0-1-0.1-1.3-0.4c-0.2-0.2-0.3-0.8-0.3-1.5V103h-0.7v-1.4h0.7v-2.2h1.8v2.2h0.8
			v1.4h-0.8C193.1,103,193.1,106.6,193.1,106.6z"/>
		<path class="st1" d="M199.3,109.6c0-0.1-0.1-0.2-0.1-0.3c0-0.1-0.1-0.3-0.1-0.5c-0.2,0.3-0.4,0.6-0.7,0.7
			c-0.3,0.2-0.7,0.2-1.1,0.2c-0.6,0-1.1-0.2-1.4-0.6c-0.3-0.4-0.5-1-0.5-1.7c0-0.7,0.1-1.2,0.4-1.6c0.3-0.4,0.9-0.8,1.8-1.2
			c0.1,0,0.2-0.1,0.4-0.2c0.7-0.3,1.1-0.7,1.1-1.1c0-0.2-0.1-0.4-0.2-0.6c-0.1-0.1-0.3-0.2-0.6-0.2c-0.3,0-0.6,0.1-0.7,0.3
			c-0.2,0.2-0.2,0.5-0.2,0.8v0.2h-1.8c0-0.9,0.2-1.5,0.6-1.9c0.4-0.4,1.1-0.6,2.1-0.6s1.6,0.2,2,0.6c0.4,0.4,0.6,1,0.6,1.9v4.5
			c0,0.2,0,0.4,0.1,0.6s0.1,0.4,0.2,0.5C201.1,109.5,199.3,109.5,199.3,109.6z M199.1,105.4c-0.7,0.3-1.1,0.7-1.4,0.9
			s-0.4,0.6-0.4,1c0,0.3,0.1,0.6,0.2,0.8c0.1,0.2,0.3,0.2,0.6,0.2c0.3,0,0.6-0.1,0.7-0.4s0.2-0.7,0.2-1.2L199.1,105.4L199.1,105.4z"
			/>
		<path class="st1" d="M208.1,108.9c0,0.7,0,1.2-0.1,1.5s-0.2,0.6-0.3,0.8c-0.2,0.3-0.5,0.5-0.9,0.7c-0.4,0.2-0.9,0.2-1.5,0.2
			c-0.8,0-1.4-0.2-1.8-0.5s-0.6-0.8-0.6-1.3h1.8c0,0.2,0.1,0.3,0.2,0.4c0.1,0.1,0.3,0.1,0.5,0.1c0.4,0,0.6-0.1,0.7-0.3
			s0.2-0.6,0.2-1.2v-0.6c-0.2,0.3-0.4,0.5-0.6,0.7c-0.2,0.2-0.6,0.2-0.9,0.2c-0.8,0-1.3-0.3-1.6-0.9s-0.5-1.7-0.5-3.3
			s0.2-2.6,0.5-3.2c0.3-0.6,0.9-0.9,1.6-0.9c0.4,0,0.7,0.1,1,0.3c0.3,0.2,0.5,0.4,0.6,0.8v-0.8h1.7L208.1,108.9L208.1,108.9z
			 M205.4,102.9c-0.3,0-0.5,0.2-0.7,0.5s-0.2,1.1-0.2,2.3c0,1.1,0.1,1.8,0.2,2.1s0.3,0.4,0.7,0.4c0.4,0,0.6-0.2,0.8-0.5
			c0.1-0.3,0.2-1.2,0.2-2.6c0-0.9-0.1-1.4-0.2-1.7C206,103.1,205.8,102.9,205.4,102.9L205.4,102.9z"/>
		<path class="st1" d="M210,105.6c0-1.6,0.2-2.7,0.6-3.3s1.1-0.9,2.2-0.9s1.8,0.3,2.2,0.9s0.6,1.7,0.6,3.3s-0.2,2.7-0.6,3.3
			s-1.1,0.9-2.2,0.9s-1.8-0.3-2.2-0.9S210,107.2,210,105.6z M211.9,100.8l1.2-1.9h1.8l-2.1,1.9H211.9z M211.9,105.5v0.2
			c0,1.2,0.1,2,0.2,2.2s0.4,0.4,0.7,0.4s0.6-0.1,0.7-0.4s0.2-0.9,0.2-2v-0.8c0-1-0.1-1.7-0.2-1.9c-0.1-0.3-0.4-0.4-0.7-0.4
			s-0.6,0.1-0.7,0.4c-0.1,0.2-0.2,0.8-0.2,1.8V105.5L211.9,105.5z"/>
		<path class="st1" d="M217.5,109.6v-7.9h1.8v0.8c0.2-0.3,0.4-0.6,0.7-0.8c0.3-0.2,0.6-0.3,0.9-0.3c0.6,0,1,0.2,1.3,0.5
			c0.3,0.3,0.5,0.8,0.5,1.4v6.2H221v-5.3c0-0.5-0.1-0.8-0.2-1s-0.3-0.3-0.6-0.3c-0.3,0-0.5,0.1-0.7,0.3c-0.1,0.2-0.2,0.6-0.2,1.2v5
			L217.5,109.6L217.5,109.6z"/>
		<path class="st1" d="M224.9,100.7V99h1.8v1.6H224.9z M224.9,109.6v-7.9h1.8v7.9H224.9z"/>
		<path class="st1" d="M233.8,106.4c0,0.1,0,0.1,0,0.2c0,0.1,0,0.2,0,0.3c0,1-0.2,1.7-0.6,2.2c-0.4,0.5-1.1,0.7-1.9,0.7
			c-1,0-1.7-0.3-2.1-0.9s-0.6-1.7-0.6-3.3s0.2-2.7,0.6-3.3c0.4-0.6,1.1-0.9,2.1-0.9c0.9,0,1.5,0.2,1.9,0.7s0.6,1.1,0.6,2v0.3H232
			v-0.2c0-0.5-0.1-0.8-0.2-1s-0.3-0.3-0.6-0.3s-0.5,0.1-0.6,0.3s-0.2,0.6-0.2,1v2.7c0,0.5,0.1,0.9,0.2,1.1s0.3,0.3,0.6,0.3
			c0.3,0,0.5-0.1,0.6-0.4s0.2-0.7,0.2-1.4v-0.2L233.8,106.4L233.8,106.4z"/>
		<path class="st1" d="M239.5,109.6c0-0.1-0.1-0.2-0.1-0.3c0-0.1-0.1-0.3-0.1-0.5c-0.2,0.3-0.4,0.6-0.7,0.7
			c-0.3,0.2-0.7,0.2-1.1,0.2c-0.6,0-1.1-0.2-1.4-0.6c-0.3-0.4-0.5-1-0.5-1.7c0-0.7,0.1-1.2,0.4-1.6c0.3-0.4,0.9-0.8,1.8-1.2
			c0.1,0,0.2-0.1,0.4-0.2c0.7-0.3,1.1-0.7,1.1-1.1c0-0.2-0.1-0.4-0.2-0.6c-0.1-0.1-0.3-0.2-0.6-0.2c-0.3,0-0.6,0.1-0.7,0.3
			c-0.2,0.2-0.2,0.5-0.2,0.8v0.2h-1.8c0-0.9,0.2-1.5,0.6-1.9c0.4-0.4,1.1-0.6,2.1-0.6s1.6,0.2,2,0.6c0.4,0.4,0.6,1,0.6,1.9v4.5
			c0,0.2,0,0.4,0.1,0.6s0.1,0.4,0.2,0.5C241.3,109.5,239.5,109.5,239.5,109.6z M239.2,105.4c-0.7,0.3-1.1,0.7-1.4,0.9
			s-0.4,0.6-0.4,1c0,0.3,0.1,0.6,0.2,0.8c0.1,0.2,0.3,0.2,0.6,0.2c0.3,0,0.6-0.1,0.7-0.4s0.2-0.7,0.2-1.2L239.2,105.4L239.2,105.4z"
			/>
		<path class="st1" d="M250.6,108.7c-0.1,0.3-0.4,0.6-0.6,0.8s-0.6,0.3-1,0.3c-0.8,0-1.3-0.3-1.6-0.9c-0.3-0.6-0.5-1.7-0.5-3.2
			s0.1-2.7,0.5-3.3c0.3-0.6,0.8-0.9,1.6-0.9c0.4,0,0.7,0.1,0.9,0.2s0.5,0.4,0.6,0.7V99h1.8v10.5h-1.7L250.6,108.7L250.6,108.7z
			 M248.8,105.5c0,1.2,0.1,2,0.2,2.3c0.1,0.3,0.3,0.5,0.7,0.5c0.4,0,0.6-0.1,0.8-0.4c0.1-0.3,0.2-0.9,0.2-1.7c0-1.4-0.1-2.3-0.2-2.6
			c-0.1-0.3-0.4-0.5-0.8-0.5c-0.3,0-0.5,0.2-0.7,0.4C248.9,103.7,248.8,104.4,248.8,105.5L248.8,105.5z"/>
		<path class="st1" d="M258,106.8h1.7c0,0,0,0.1,0,0.2s0,0.1,0,0.2c0,0.9-0.2,1.6-0.6,2c-0.4,0.4-1.1,0.6-2,0.6
			c-0.5,0-0.9-0.1-1.2-0.2c-0.3-0.1-0.6-0.3-0.8-0.6c-0.3-0.3-0.4-0.7-0.5-1.2c-0.1-0.5-0.2-1.3-0.2-2.5c0-1,0.1-1.7,0.1-2.1
			s0.2-0.8,0.5-1c0.2-0.3,0.5-0.5,0.9-0.6c0.4-0.1,0.8-0.2,1.3-0.2s0.9,0.1,1.3,0.2s0.6,0.4,0.9,0.7c0.2,0.3,0.3,0.6,0.4,1
			c0.1,0.4,0.1,1,0.1,1.9v0.6h-3.6c0,0.1,0,0.1,0,0.2c0,0.1,0,0.2,0,0.3c0,0.8,0.1,1.3,0.2,1.6c0.1,0.3,0.4,0.4,0.7,0.4
			s0.6-0.1,0.7-0.4S258,107.4,258,106.8L258,106.8z M256.2,104.6h1.8v-0.3c0-0.5-0.1-0.9-0.2-1.1c-0.1-0.2-0.4-0.3-0.7-0.3
			s-0.5,0.1-0.7,0.3s-0.2,0.6-0.2,1.1C256.1,104.4,256.2,104.5,256.2,104.6L256.2,104.6z"/>
		<path class="st1" d="M265.7,105.8h2v0.7c0,0.7,0.1,1.1,0.2,1.3c0.2,0.2,0.4,0.3,0.8,0.3s0.7-0.1,1-0.3s0.3-0.5,0.3-0.9
			c0-0.3-0.1-0.6-0.2-0.8c-0.1-0.2-0.5-0.5-1-0.9l-1-0.7c-0.9-0.6-1.4-1.1-1.6-1.5c-0.2-0.4-0.4-0.9-0.4-1.5c0-0.9,0.3-1.6,0.8-2.1
			s1.2-0.8,2.2-0.8c1,0,1.7,0.3,2.2,0.8c0.5,0.5,0.8,1.3,0.8,2.3c0,0.1,0,0.2,0,0.2c0,0.1,0,0.1,0,0.1h-1.9V102c0-0.6-0.1-1-0.3-1.2
			c-0.2-0.2-0.5-0.4-0.9-0.4c-0.3,0-0.6,0.1-0.7,0.3s-0.3,0.4-0.3,0.8c0,0.4,0.4,0.9,1.2,1.5h0l1.1,0.7c0.8,0.5,1.3,1,1.6,1.4
			c0.3,0.4,0.4,1,0.4,1.7c0,1-0.3,1.7-0.8,2.2c-0.5,0.5-1.3,0.8-2.3,0.8s-1.9-0.3-2.4-0.8c-0.5-0.6-0.8-1.4-0.8-2.5
			C265.7,106.4,265.7,106.2,265.7,105.8L265.7,105.8L265.7,105.8z"/>
		<path class="st1" d="M277.5,106.8h1.7c0,0,0,0.1,0,0.2s0,0.1,0,0.2c0,0.9-0.2,1.6-0.6,2c-0.4,0.4-1.1,0.6-2,0.6
			c-0.5,0-0.9-0.1-1.2-0.2c-0.3-0.1-0.6-0.3-0.8-0.6c-0.3-0.3-0.4-0.7-0.5-1.2c-0.1-0.5-0.2-1.3-0.2-2.5c0-1,0-1.7,0.1-2.1
			s0.2-0.8,0.5-1c0.2-0.3,0.5-0.5,0.9-0.6c0.4-0.1,0.8-0.2,1.3-0.2s0.9,0.1,1.3,0.2s0.6,0.4,0.9,0.7c0.2,0.3,0.3,0.6,0.4,1
			c0.1,0.4,0.1,1,0.1,1.9v0.6h-3.6c0,0.1,0,0.1,0,0.2c0,0.1,0,0.2,0,0.3c0,0.8,0.1,1.3,0.2,1.6c0.1,0.3,0.4,0.4,0.7,0.4
			s0.6-0.1,0.7-0.4S277.5,107.4,277.5,106.8L277.5,106.8z M275.7,104.6h1.8v-0.3c0-0.5-0.1-0.9-0.2-1.1c-0.1-0.2-0.4-0.3-0.7-0.3
			s-0.5,0.1-0.7,0.3s-0.2,0.6-0.2,1.1C275.7,104.4,275.7,104.5,275.7,104.6L275.7,104.6z"/>
		<path class="st1" d="M281.3,109.6v-7.9h1.8v1.3c0.2-0.5,0.5-0.9,0.8-1.1c0.3-0.2,0.6-0.3,1-0.3v2.2c-0.1,0-0.1,0-0.2,0
			c-0.1,0-0.1,0-0.2,0c-0.4,0-0.7,0.1-0.9,0.3c-0.2,0.2-0.3,0.5-0.3,0.9v4.6H281.3L281.3,109.6z"/>
		<path class="st1" d="M288,109.6l-1.8-7.9h1.9l1,6.1l1-6.1h1.9l-1.8,7.9H288L288,109.6z"/>
		<path class="st1" d="M293.6,100.7V99h1.8v1.6H293.6z M293.6,109.6v-7.9h1.8v7.9H293.6z"/>
		<path class="st1" d="M302.5,106.4c0,0.1,0,0.1,0,0.2c0,0.1,0,0.2,0,0.3c0,1-0.2,1.7-0.6,2.2c-0.4,0.5-1.1,0.7-1.9,0.7
			c-1,0-1.7-0.3-2.1-0.9c-0.4-0.6-0.6-1.7-0.6-3.3s0.2-2.7,0.6-3.3c0.4-0.6,1.1-0.9,2.1-0.9c0.9,0,1.5,0.2,1.9,0.7s0.6,1.1,0.6,2
			v0.3h-1.8v-0.2c0-0.5-0.1-0.8-0.2-1s-0.3-0.3-0.6-0.3s-0.5,0.1-0.6,0.3s-0.2,0.6-0.2,1v2.7c0,0.5,0.1,0.9,0.2,1.1s0.3,0.3,0.6,0.3
			c0.3,0,0.5-0.1,0.6-0.4s0.2-0.7,0.2-1.4v-0.2L302.5,106.4L302.5,106.4z"/>
		<path class="st1" d="M304.4,100.7V99h1.8v1.6H304.4z M304.4,109.6v-7.9h1.8v7.9H304.4z"/>
		<path class="st1" d="M308.2,105.6c0-1.6,0.2-2.7,0.6-3.3s1.1-0.9,2.2-0.9s1.8,0.3,2.2,0.9s0.6,1.7,0.6,3.3s-0.2,2.7-0.6,3.3
			s-1.1,0.9-2.2,0.9s-1.8-0.3-2.2-0.9S308.2,107.2,308.2,105.6z M310,105.5v0.2c0,1.2,0.1,2,0.2,2.2s0.4,0.4,0.7,0.4
			s0.6-0.1,0.7-0.4s0.2-0.9,0.2-2v-0.8c0-1-0.1-1.7-0.2-1.9c-0.1-0.3-0.4-0.4-0.7-0.4s-0.6,0.1-0.7,0.4c-0.1,0.2-0.2,0.8-0.2,1.8
			L310,105.5L310,105.5z"/>
		<path class="st1" d="M315.4,106.9h1.6v0.2c0,0.5,0.1,0.8,0.2,1c0.1,0.2,0.4,0.3,0.7,0.3c0.3,0,0.5-0.1,0.6-0.2
			c0.1-0.1,0.2-0.3,0.2-0.6c0-0.3-0.3-0.7-0.9-1c-0.1-0.1-0.3-0.2-0.4-0.2l-0.1-0.1c-1.3-0.9-2-1.8-2-2.7c0-0.7,0.2-1.2,0.6-1.6
			c0.4-0.4,1.1-0.6,1.9-0.6s1.4,0.2,1.8,0.6s0.6,1,0.6,1.9v0.2h-1.6v-0.2c0-0.4-0.1-0.7-0.2-0.8s-0.4-0.3-0.7-0.3
			c-0.2,0-0.4,0.1-0.5,0.2s-0.2,0.3-0.2,0.5c0,0.2,0.1,0.4,0.2,0.5c0.1,0.2,0.4,0.4,0.8,0.7c0.1,0.1,0.2,0.2,0.4,0.3
			c1.3,0.9,2,1.8,2,2.6c0,0.7-0.2,1.2-0.7,1.6c-0.5,0.4-1.1,0.6-1.9,0.6c-0.9,0-1.5-0.2-1.9-0.6s-0.6-1.1-0.6-1.9c0,0,0-0.1,0-0.2
			S315.4,107,315.4,106.9L315.4,106.9z"/>
		<path class="st1" d="M326.5,109.6V99h3.4c1,0,1.8,0.2,2.2,0.7c0.5,0.5,0.7,1.2,0.7,2.3s-0.2,1.8-0.7,2.3c-0.5,0.5-1.2,0.8-2.2,0.8
			h-1.4v4.5L326.5,109.6L326.5,109.6z M328.4,103.6h0.8c0.6,0,1-0.1,1.3-0.4c0.2-0.2,0.4-0.7,0.4-1.2s-0.1-1-0.3-1.2
			c-0.2-0.2-0.7-0.3-1.3-0.3h-0.9L328.4,103.6L328.4,103.6z"/>
		<path class="st1" d="M337.9,106.8h1.7c0,0,0,0.1,0,0.2s0,0.1,0,0.2c0,0.9-0.2,1.6-0.6,2c-0.4,0.4-1.1,0.6-2,0.6
			c-0.5,0-0.9-0.1-1.2-0.2c-0.3-0.1-0.6-0.3-0.8-0.6c-0.3-0.3-0.4-0.7-0.5-1.2c-0.1-0.5-0.2-1.3-0.2-2.5c0-1,0-1.7,0.1-2.1
			s0.2-0.8,0.5-1c0.2-0.3,0.5-0.5,0.9-0.6c0.4-0.1,0.8-0.2,1.3-0.2s0.9,0.1,1.3,0.2s0.6,0.4,0.9,0.7c0.2,0.3,0.3,0.6,0.4,1
			c0.1,0.4,0.1,1,0.1,1.9v0.6H336c0,0.1,0,0.1,0,0.2c0,0.1,0,0.2,0,0.3c0,0.8,0.1,1.3,0.2,1.6c0.1,0.3,0.4,0.4,0.7,0.4
			s0.6-0.1,0.7-0.4S337.8,107.4,337.9,106.8L337.9,106.8z M336,104.6h1.8v-0.3c0-0.5-0.1-0.9-0.2-1.1c-0.1-0.2-0.4-0.3-0.7-0.3
			s-0.5,0.1-0.7,0.3s-0.2,0.6-0.2,1.1C336,104.4,336,104.5,336,104.6L336,104.6z"/>
		<path class="st1" d="M343.5,106.6v0.5c0,0.4,0,0.7,0.1,0.8s0.2,0.2,0.4,0.2c0,0,0.1,0,0.1,0s0.1,0,0.1,0v1.4
			c-0.3,0-0.5,0.1-0.6,0.1c-0.1,0-0.3,0-0.4,0c-0.6,0-1-0.1-1.3-0.4c-0.2-0.2-0.3-0.8-0.3-1.5V103H341v-1.4h0.7v-2.2h1.8v2.2h0.8
			v1.4h-0.8C343.5,103,343.5,106.6,343.5,106.6z"/>
		<path class="st1" d="M346,109.6v-7.9h1.8v1.3c0.2-0.5,0.5-0.9,0.8-1.1c0.3-0.2,0.6-0.3,1-0.3v2.2c-0.1,0-0.1,0-0.2,0
			c-0.1,0-0.1,0-0.2,0c-0.4,0-0.7,0.1-0.9,0.3c-0.2,0.2-0.3,0.5-0.3,0.9v4.6H346L346,109.6z"/>
		<path class="st1" d="M351,105.6c0-1.6,0.2-2.7,0.6-3.3s1.1-0.9,2.2-0.9s1.8,0.3,2.2,0.9s0.6,1.7,0.6,3.3s-0.2,2.7-0.6,3.3
			s-1.1,0.9-2.2,0.9s-1.8-0.3-2.2-0.9S351,107.2,351,105.6z M352.9,105.5v0.2c0,1.2,0.1,2,0.2,2.2s0.4,0.4,0.7,0.4s0.6-0.1,0.7-0.4
			s0.2-0.9,0.2-2v-0.8c0-1-0.1-1.7-0.2-1.9c-0.1-0.3-0.4-0.4-0.7-0.4s-0.6,0.1-0.7,0.4c-0.1,0.2-0.2,0.8-0.2,1.8L352.9,105.5
			L352.9,105.5z"/>
		<path class="st1" d="M358.5,109.6V99h1.8v10.5H358.5z"/>
		<path class="st1" d="M365.9,106.8h1.7c0,0,0,0.1,0,0.2s0,0.1,0,0.2c0,0.9-0.2,1.6-0.6,2c-0.4,0.4-1.1,0.6-2,0.6
			c-0.5,0-0.9-0.1-1.2-0.2c-0.3-0.1-0.6-0.3-0.8-0.6c-0.3-0.3-0.4-0.7-0.5-1.2c-0.1-0.5-0.2-1.3-0.2-2.5c0-1,0-1.7,0.1-2.1
			s0.2-0.8,0.5-1c0.2-0.3,0.5-0.5,0.9-0.6c0.4-0.1,0.8-0.2,1.3-0.2s0.9,0.1,1.3,0.2s0.6,0.4,0.9,0.7c0.2,0.3,0.3,0.6,0.4,1
			c0.1,0.4,0.1,1,0.1,1.9v0.6h-3.6c0,0.1,0,0.1,0,0.2c0,0.1,0,0.2,0,0.3c0,0.8,0.1,1.3,0.2,1.6c0.1,0.3,0.4,0.4,0.7,0.4
			s0.6-0.1,0.7-0.4S365.9,107.4,365.9,106.8L365.9,106.8z M364.1,104.6h1.8v-0.3c0-0.5-0.1-0.9-0.2-1.1c-0.1-0.2-0.4-0.3-0.7-0.3
			s-0.5,0.1-0.7,0.3s-0.2,0.6-0.2,1.1C364.1,104.4,364.1,104.5,364.1,104.6L364.1,104.6z"/>
		<path class="st1" d="M369.7,109.6v-7.9h1.8v1.3c0.2-0.5,0.5-0.9,0.8-1.1c0.3-0.2,0.6-0.3,1-0.3v2.2c-0.1,0-0.1,0-0.2,0
			c-0.1,0-0.1,0-0.2,0c-0.4,0-0.7,0.1-0.9,0.3c-0.2,0.2-0.3,0.5-0.3,0.9v4.6H369.7L369.7,109.6z"/>
		<path class="st1" d="M374.7,105.6c0-1.6,0.2-2.7,0.6-3.3s1.1-0.9,2.2-0.9s1.8,0.3,2.2,0.9s0.6,1.7,0.6,3.3s-0.2,2.7-0.6,3.3
			s-1.1,0.9-2.2,0.9s-1.8-0.3-2.2-0.9S374.7,107.2,374.7,105.6z M376.6,105.5v0.2c0,1.2,0.1,2,0.2,2.2s0.4,0.4,0.7,0.4
			s0.6-0.1,0.7-0.4s0.2-0.9,0.2-2v-0.8c0-1-0.1-1.7-0.2-1.9c-0.1-0.3-0.4-0.4-0.7-0.4s-0.6,0.1-0.7,0.4c-0.1,0.2-0.2,0.8-0.2,1.8
			L376.6,105.5L376.6,105.5z"/>
		<path class="st1" d="M381.9,106.9h1.6v0.2c0,0.5,0.1,0.8,0.2,1c0.1,0.2,0.4,0.3,0.7,0.3c0.3,0,0.5-0.1,0.6-0.2
			c0.1-0.1,0.2-0.3,0.2-0.6c0-0.3-0.3-0.7-0.9-1c-0.1-0.1-0.3-0.2-0.4-0.2l-0.1-0.1c-1.3-0.9-2-1.8-2-2.7c0-0.7,0.2-1.2,0.6-1.6
			c0.4-0.4,1.1-0.6,1.9-0.6s1.4,0.2,1.8,0.6s0.6,1,0.6,1.9v0.2h-1.6v-0.2c0-0.4-0.1-0.7-0.2-0.8s-0.4-0.3-0.7-0.3
			c-0.2,0-0.4,0.1-0.5,0.2s-0.2,0.3-0.2,0.5c0,0.2,0.1,0.4,0.2,0.5c0.1,0.2,0.4,0.4,0.8,0.7c0.1,0.1,0.2,0.2,0.4,0.3
			c1.3,0.9,2,1.8,2,2.6c0,0.7-0.2,1.2-0.7,1.6c-0.5,0.4-1.1,0.6-1.9,0.6c-0.9,0-1.5-0.2-1.9-0.6s-0.6-1.1-0.6-1.9c0,0,0-0.1,0-0.2
			S381.9,107,381.9,106.9L381.9,106.9z"/>
	</g>
	<rect x="117" y="80.5" class="st1" width="82.6" height="8.3"/>
	<polygon class="st1" points="396.4,88.8 214.8,88.8 222.5,80.5 396.4,80.5 	"/>
</g>
</svg>
